#!OML:ASF Y:\EmotionMaleHayes\Project 1\Capture day 1\Session 1\Male1.ASF
:FULLY-SPECIFIED
:DEGREES
189
root -28.6612 17.9145 -0.387851 -25.2538 -7.6396 8.63719
lowerback 8.29683 1.1128 3.73891
upperback 1.87178 2.08834 9.88745
thorax -2.95792 1.04312 8.12518
lowerneck -18.0247 3.26793 4.86955
upperneck 40.1829 5.20002 -4.63707
head 18.4327 2.2743 -1.95886
rclavicle -1.27222e-014 4.45278e-014
rhumerus 0 0 0
rradius 0
rwrist 0
rhand 0 0
rfingers 0
rthumb 0 0
lclavicle -1.27222e-014 4.45278e-014
lhumerus 19.9639 22.3498 1.22394
lradius 61.6312
lwrist 18.1117
lhand -36.2006 -33.0684
lfingers 7.12502
lthumb -9.30338 -3.29367
rfemur 25.7061 3.14613 12.4079
rtibia 33.1064
rfoot 10.7445 1.54785
rtoes 21.9125
lfemur 0.146133 3.63373 -22.1804
ltibia 24.0037
lfoot 0.188936 6.76651
ltoes 2.16138
190
root -28.5693 17.7726 -0.509061 -24.1952 -9.68264 7.35776
lowerback 8.54192 1.3866 4.98311
upperback 1.91914 2.58638 10.3467
thorax -3.06946 1.27935 7.85674
lowerneck -18.1057 3.62705 4.92526
upperneck 39.3177 5.5486 -4.29721
head 17.9597 2.46321 -1.71517
rclavicle 4.77083e-015 -5.725e-014
rhumerus 0 0 0
rradius 0
rwrist 0
rhand 0 0
rfingers 0
rthumb 0 0
lclavicle 4.77083e-015 -5.725e-014
lhumerus 17.5425 23.7045 -0.602458
lradius 63.6527
lwrist 20.4949
lhand -39.7968 -37.3114
lfingers 7.12502
lthumb -12.7719 -7.72204
rfemur 26.1137 3.21031 15.4937
rtibia 30.9584
rfoot 4.44896 -1.97844
rtoes 35.2693
lfemur -2.26917 2.6364 -18.8811
ltibia 27.2718
lfoot -0.832121 5.72941
ltoes -1.85898
191
root -28.4754 17.6179 -0.64699 -23.0102 -11.7117 6.08298
lowerback 8.94865 1.58153 6.45402
upperback 2.11037 3.00093 10.6773
thorax -3.07887 1.46733 7.32683
lowerneck -18.5888 3.99981 4.86183
upperneck 38.1876 6.05751 -4.25852
head 17.4799 2.64858 -1.55543
rclavicle 1.74931e-014 0
rhumerus 0 0 0
rradius 0
rwrist 0
rhand 0 0
rfingers 0
rthumb 0 0
lclavicle 1.74931e-014 0
lhumerus 15.5046 25.7344 -1.32259
lradius 65.0992
lwrist 21.2082
lhand -42.4834 -44.1091
lfingers 7.12502
lthumb -15.3608 -14.6997
rfemur 24.7531 2.42006 17.7336
rtibia 34.0723
rfoot -4.89332 -4.2731
rtoes 26.9179
lfemur -4.87795 1.68176 -15.4449
ltibia 31.0925
lfoot -1.84323 4.53967
ltoes -5.27551
192
root -28.374 17.4548 -0.786625 -21.7376 -13.7114 5.22742
lowerback 9.32969 1.82572 7.60065
upperback 2.1928 3.4633 10.7575
thorax -3.17802 1.67942 6.70269
lowerneck -19.0692 4.41437 5.64893
upperneck 37.3962 6.5849 -4.8901
head 17.2831 2.8731 -1.85352
rclavicle 1.59028e-015 6.04305e-014
rhumerus 0 0 0
rradius 0
rwrist 0
rhand 0 0
rfingers 0
rthumb 0 0
lclavicle 1.59028e-015 6.04305e-014
lhumerus 13.4293 27.6675 -2.41922
lradius 66.37
lwrist 21.7314
lhand -44.6791 -52.9449
lfingers 7.12502
lthumb -17.4748 -23.7104
rfemur 23.1226 2.6344 19.6956
rtibia 35.9878
rfoot -10.378 -7.30361
rtoes 2.06961
lfemur -7.54486 1.17019 -12.399
ltibia 35.2327
lfoot -2.88215 3.58106
ltoes -5.95716
193
root -28.2646 17.2831 -0.924578 -20.4611 -15.746 4.41663
lowerback 9.66435 1.93439 8.5848
upperback 2.25786 3.73281 10.9068
thorax -3.2587 1.79549 6.2756
lowerneck -18.9688 4.94795 6.42128
upperneck 36.4872 7.38415 -5.69463
head 16.9299 3.19444 -2.17089
rclavicle 3.10104e-014 1.01778e-013
rhumerus 0 0 0
rradius 0
rwrist 0
rhand 0 0
rfingers 0
rthumb 0 0
lclavicle 3.10104e-014 1.01778e-013
lhumerus 10.8279 29.5195 -3.80102
lradius 67.3628
lwrist 21.7385
lhand -46.1975 -60.3258
lfingers 7.12502
lthumb -18.9356 -31.2275
rfemur 21.568 2.86814 21.0601
rtibia 36.1371
rfoot -15.2831 -7.43618
rtoes -3.34458
lfemur -10.0054 0.872928 -9.34626
ltibia 39.7678
lfoot -4.10647 3.09552
ltoes -5.68211
194
root -28.1467 17.0982 -1.0635 -19.1616 -17.6862 3.22645
lowerback 10.1874 2.12299 10.0916
upperback 2.33736 4.18912 10.8353
thorax -3.37133 1.9944 5.29137
lowerneck -19.061 5.43346 7.50372
upperneck 35.6214 7.81597 -6.12162
head 16.6313 3.45728 -2.44024
rclavicle -1.59028e-015 3.18055e-015
rhumerus 0 0 0
rradius 0
rwrist 0
rhand 0 0
rfingers 0
rthumb 0 0
lclavicle -1.59028e-015 3.18055e-015
lhumerus 9.62871 32.0976 -4.44736
lradius 67.6052
lwrist 20.4407
lhand -46.3638 -67.9197
lfingers 7.12502
lthumb -19.0955 -38.8371
rfemur 20.3375 2.47003 22.0894
rtibia 35.2459
rfoot -17.9475 -6.90183
rtoes 10.2545
lfemur -12.2231 1.17726 -5.95987
ltibia 44.368
lfoot -4.8981 2.7418
ltoes -9.04574
195
root -28.0217 16.9292 -1.19181 -18.2234 -19.6162 2.50946
lowerback 10.9015 2.38315 11.1244
upperback 2.52003 4.72131 10.6766
thorax -3.48493 2.23537 4.46226
lowerneck -19.4165 6.03195 8.79153
upperneck 35.1073 8.39818 -6.68536
head 16.6347 3.78246 -2.77397
rclavicle -2.14687e-014 1.59028e-014
rhumerus 0 0 0
rradius 0
rwrist 0
rhand 0 0
rfingers 0
rthumb 0 0
lclavicle -2.14687e-014 1.59028e-014
lhumerus 8.96869 35.0886 -4.48428
lradius 67.3765
lwrist 18.0137
lhand -45.8754 -75.7632
lfingers 7.12502
lthumb -18.6259 -46.635
rfemur 19.4919 1.84459 22.1047
rtibia 33.9489
rfoot -20.2779 -6.64817
rtoes 10.5497
lfemur -13.6328 1.98016 -3.19931
ltibia 48.9137
lfoot -5.82855 2.86731
ltoes -11.2618
196
root -27.8959 16.7467 -1.31964 -18.5028 -21.0346 4.18698
lowerback 12.1276 2.86166 9.54614
upperback 2.76173 5.33131 10.0822
thorax -3.99538 2.53882 4.53362
lowerneck -19.1851 6.14992 9.1167
upperneck 34.4423 8.44613 -6.76476
head 16.2715 3.83477 -2.84278
rclavicle -1.35174e-014 -6.36111e-015
rhumerus 0 0 0
rradius 0
rwrist 0
rhand 0 0
rfingers 0
rthumb 0 0
lclavicle -1.35174e-014 -6.36111e-015
lhumerus 8.57526 37.8897 -4.03974
lradius 67.0929
lwrist 15.4751
lhand -46.8888 -81.435
lfingers 7.12502
lthumb -19.6004 -52.4031
rfemur 19.1422 1.53914 19.2698
rtibia 32.9348
rfoot -22.9327 -6.7647
rtoes 1.73889
lfemur -14.1458 2.95625 -3.29697
ltibia 53.1972
lfoot -6.6583 3.91805
ltoes -11.4993
197
root -27.7664 16.5681 -1.45872 -18.4116 -22.6344 4.53537
lowerback 13.5905 3.2799 9.21194
upperback 2.81441 6.05404 9.82921
thorax -4.76607 2.87067 4.25089
lowerneck -19.0372 6.31263 9.5261
upperneck 34.1223 8.49233 -6.68609
head 16.1032 3.9192 -2.86365
rclavicle -4.05521e-014 -1.01778e-013
rhumerus 0 0 0
rradius 0
rwrist 0
rhand 0 0
rfingers 0
rthumb 0 0
lclavicle -4.05521e-014 -1.01778e-013
lhumerus 8.7533 40.4512 -2.9241
lradius 66.8667
lwrist 13.3888
lhand -47.8242 -84.8485
lfingers 7.12502
lthumb -20.4994 -55.9108
rfemur 18.4509 1.5599 18.3547
rtibia 32.6831
rfoot -25.5503 -6.46444
rtoes 2.03745
lfemur -14.6585 4.24163 -1.91576
ltibia 57.7339
lfoot -7.3581 5.01076
ltoes -11.535
198
root -27.6355 16.4014 -1.5508 -19.1576 -23.619 6.25049
lowerback 14.6365 3.70618 7.40841
upperback 3.05577 6.46614 9.42654
thorax -5.24151 3.09132 4.67189
lowerneck -18.9482 6.559 9.67695
upperneck 34.023 8.72968 -6.4847
head 16.0583 4.06628 -2.7509
rclavicle -5.08889e-014 -1.145e-013
rhumerus 0 0 0
rradius 0
rwrist 0
rhand 0 0
rfingers 0
rthumb 0 0
lclavicle -5.08889e-014 -1.145e-013
lhumerus 8.67826 42.8903 -1.60544
lradius 66.8325
lwrist 11.6413
lhand -48.3133 -86.6041
lfingers 7.12502
lthumb -20.9695 -57.7177
rfemur 18.3791 1.5381 15.6939
rtibia 32.1791
rfoot -27.8054 -5.77141
rtoes 1.59605
lfemur -14.174 5.42409 -2.56271
ltibia 61.8699
lfoot -7.91377 6.75156
ltoes -15.3283
199
root -27.5075 16.2668 -1.63609 -20.1297 -24.2983 8.07666
lowerback 15.6053 4.07964 5.25638
upperback 3.32472 6.7113 9.19988
thorax -5.71365 3.24382 5.51872
lowerneck -18.8804 6.83263 9.76056
upperneck 34.0364 9.15018 -6.55952
head 16.1096 4.24324 -2.71168
rclavicle 6.08281e-014 -4.77083e-014
rhumerus 0 0 0
rradius 0
rwrist 0
rhand 0 0
rfingers 0
rthumb 0 0
lclavicle 6.08281e-014 -4.77083e-014
lhumerus 7.93506 44.4477 -0.601681
lradius 66.8847
lwrist 12.761
lhand -47.9903 -87.0022
lfingers 7.12502
lthumb -20.6591 -58.0817
rfemur 18.0673 1.63111 13.0234
rtibia 32.0311
rfoot -29.942 -5.35512
rtoes 0.710955
lfemur -13.0969 6.33588 -3.4633
ltibia 65.3393
lfoot -8.48901 8.35121
ltoes -12.7682
200
root -27.3917 16.1617 -1.7172 -20.6574 -25.1415 8.53706
lowerback 16.4758 4.2783 4.4362
upperback 3.51981 6.90717 9.19223
thorax -6.08875 3.34837 5.88167
lowerneck -18.6236 7.11085 10.4612
upperneck 34.0135 9.53717 -7.07367
head 16.1724 4.43136 -2.98092
rclavicle -4.8901e-014 -1.30403e-013
rhumerus -19.5211 -8.20742 -59.8083
rradius 43.6393
rwrist -11.1125
rhand -9.41821 -37.964
rfingers 7.12502
rthumb 16.5438 -67.2788
lclavicle -4.8901e-014 -1.30403e-013
lhumerus 7.5816 45.8703 0.334513
lradius 66.4755
lwrist 14.3896
lhand -48.036 -84.491
lfingers 7.12502
lthumb -20.703 -55.5753
rfemur 17.9481 1.99367 12.3238
rtibia 31.8561
rfoot -30.2308 -5.13922
rtoes 0.241771
lfemur -11.6293 7.03357 -2.80629
ltibia 68.495
lfoot -9.91825 8.58081
ltoes 4.28715
